<svg xmlns="http://www.w3.org/2000/svg" width="180" height="28" viewBox="0 0 180 28" fill="none">
<path d="M17.8978 10.2242C17.8978 6.75758 15.5793 4.74445 11.0923 4.74445H5.11246V15.6955H11.0923C15.5793 15.6955 17.8978 13.6824 17.8978 10.2158M23.052 10.2158C23.052 16.2803 18.565 20.0225 11.3342 20.0225H5.11246V27.9831H0V0.41748H11.3258C18.565 0.41748 23.0436 4.11796 23.0436 10.2242" fill="black"/>
<path d="M47.4407 17.5922L42.2448 5.5385L37.0907 17.5922H47.4323H47.4407ZM49.1337 21.6101H35.3643L32.6537 27.992H27.3828L39.7678 0.417969H44.8052L57.2319 27.992H51.8859L49.1337 21.6101Z" fill="black"/>
<path d="M113.448 17.5922L108.253 5.5385L103.098 17.5922H113.44H113.448ZM115.142 21.6101H101.372L98.6615 27.992H93.3906L105.776 0.417969H110.813L123.24 27.992H117.894L115.142 21.6101Z" fill="black"/>
<path d="M135.714 4.71104V13.106H149.008V17.4414H135.714V27.9998H130.602V0.41748H150.701V4.71104H135.714Z" fill="black"/>
<path d="M179.998 23.6984V27.992H159.348V0.417969H179.447V4.71153H164.46V11.887H177.754V16.1053H164.46V23.7068H179.998V23.6984Z" fill="black"/>
<path d="M61.3242 0L83.4588 27.858H89.3469L67.0121 0H61.3242Z" fill="black"/>
<path d="M61.3242 27.858H66.4033L73.3089 18.3019L69.8561 15.8628L61.3242 27.858Z" fill="black"/>
<path d="M80.6168 11.9952L77.1641 9.35562L83.661 0H89.1404L80.6168 11.9952Z" fill="black"/>
</svg>
